# xmcd CD database file
#
# Track frame offsets:
#	150
#	16942
#	37600
#	61410
#	75177
#	98925
#	116897
#	139305
#	152990
#	181862
#
# Disc length: 2641 seconds
#
# Revision: 0
# Processed by: cddbd v1.4PL0 Copyright (c) Steve Scherf et al.
# Submitted via: Feurio! 1.65.5ß - http://www.feurio.com
#
DISCID=750a4f0a
DTITLE=Johnny "Big Moose" Walker - Mellow Down Easy
DYEAR=1992
DGENRE=blues
TTITLE0=I'm Tore Up
TTITLE1=Mellow Down Easy
TTITLE2=One-Eyed Woman
TTITLE3=Talk To Your Daughter
TTITLE4=Sixteen Tons
TTITLE5=Fool Race
TTITLE6=I Don't Want No Woman
TTITLE7=Would You Babe
TTITLE8=Don't Cry Baby
TTITLE9=Somebody Got To Go
EXTD=
EXTT0=
EXTT1=
EXTT2=
EXTT3=
EXTT4=
EXTT5=
EXTT6=
EXTT7=
EXTT8=
EXTT9=
PLAYORDER=
